<?xml version="1.0" encoding="UTF-8"?>
<svg id="Layer_2" data-name="Layer 2" xmlns="http://www.w3.org/2000/svg" viewBox="0 0 125.81 33.51">
  <defs>
    <style>
      .cls-1 {
        fill: #030303;
      }

      .cls-1, .cls-2, .cls-3 {
        stroke-width: 0px;
      }

      .cls-2 {
        fill: #6ae700;
      }

      .cls-3 {
        fill: #ffc800;
      }
    </style>
  </defs>
  <g id="Layer_1-2" data-name="Layer 1">
    <g>
      <path class="cls-2" d="M2.13,18.54l1.54-8.81H0l.79-4.43h1.62c1.5,0,2.21-.95,2.73-3.72l.28-1.58h5.26l-.95,5.3h4.78l-.79,4.43h-4.66l-1.54,8.46c-.28,1.82.59,2.61,2.09,2.61.79,0,1.7-.16,2.45-.36v4.11c-1.23.39-2.57.59-3.91.59-4.43,0-6.68-2.73-6.01-6.6Z"/>
      <path class="cls-3" d="M13.64,22.21c0-1.9,1.66-3.52,3.52-3.52s3,1.34,3,2.92c0,1.9-1.62,3.52-3.56,3.52-1.7,0-2.96-1.3-2.96-2.92Z"/>
      <path class="cls-1" d="M21.38,16.24c0-6.09,4.58-11.42,11.03-11.42,5.41,0,8.89,3.32,9.17,7.11l-4.9.83c-.2-1.46-1.7-3.2-4.47-3.2-3.48,0-5.53,3.16-5.53,6.36,0,2.92,1.9,4.7,4.7,4.7,2.13,0,3.71-1.22,4.39-2.45l4.39,1.66c-1.34,3.2-4.9,5.53-9.21,5.53-5.73,0-9.56-3.83-9.56-9.13Z"/>
      <path class="cls-1" d="M42.49,16.32c0-6.09,4.39-11.5,10.75-11.5,2.88,0,5.22.99,6.72,2.81l.43-2.33h5.33l-3.48,19.6h-5.3l.24-1.3c-1.54,1.19-3.48,1.78-5.57,1.78-5.53,0-9.13-3.79-9.13-9.05ZM52.76,20.63c3.28,0,5.93-2.77,5.93-6.17,0-2.81-2.06-4.9-5.06-4.9-3.28,0-5.89,2.77-5.89,6.13,0,2.85,2.05,4.94,5.02,4.94Z"/>
      <path class="cls-1" d="M69.29,5.3h5.38l-.32,1.82c1.34-1.5,3.04-2.29,5.02-2.29.79,0,1.58.08,2.37.32l-.79,4.62c-.79-.2-1.7-.32-2.37-.32-2.88,0-4.98,1.82-5.49,4.82l-1.9,10.63h-5.34l3.44-19.6Z"/>
      <path class="cls-1" d="M78.58,27.31l4.23-2.02c.79,2.21,3.79,3.79,7.15,3.79s5.77-1.82,5.77-4.66c0-.55-.12-1.15-.32-1.74-1.62,1.19-3.56,1.82-5.65,1.82-5.18,0-8.97-3.67-8.97-8.97,0-5.81,4.58-10.71,10.51-10.71,2.81,0,5.22,1.03,6.64,2.85l.43-2.37h5.3l-2.96,16.91c.16.71.24,1.42.24,2.13,0,5.38-4.7,9.17-11.18,9.17-5.53,0-10.31-2.69-11.18-6.2ZM91.03,19.76c3.24,0,5.73-2.45,5.73-5.45s-2.25-4.74-5.02-4.74c-3.16,0-5.65,2.49-5.65,5.61,0,2.65,2.05,4.58,4.94,4.58Z"/>
      <path class="cls-1" d="M104.62,16.08c0-6.2,4.98-11.26,11.34-11.26,5.73,0,9.84,3.87,9.84,9.29,0,6.17-4.94,11.26-11.34,11.26-5.69,0-9.84-3.87-9.84-9.29ZM114.74,20.63c3.44,0,5.77-3,5.77-6.2,0-2.81-1.94-4.86-4.82-4.86-3.2,0-5.77,2.73-5.77,6.21,0,2.77,1.94,4.86,4.82,4.86Z"/>
    </g>
  </g>
</svg>