<?xml version="1.0" encoding="UTF-8"?>
<svg id="Layer_2" data-name="Layer 2" xmlns="http://www.w3.org/2000/svg" viewBox="0 0 47.17 47.17">
  <defs>
    <style>
      .cls-1 {
        fill: #6ae700;
      }

      .cls-1, .cls-2, .cls-3 {
        stroke-width: 0px;
      }

      .cls-2 {
        fill: #ffc800;
      }

      .cls-3 {
        fill: #fff;
      }
    </style>
  </defs>
  <g id="Layer_1-2" data-name="Layer 1">
    <g>
      <path class="cls-3" d="M0,12.41C0,5.56,5.56,0,12.41,0h22.35c6.86,0,12.41,5.56,12.41,12.41v22.35c0,6.86-5.56,12.41-12.41,12.41H12.41c-6.86,0-12.41-5.56-12.41-12.41V12.41Z"/>
      <g>
        <path class="cls-1" d="M13.84,30.16l1.59-9.11h-4.08l1.04-5.89h1.81c1.63,0,2.49-1.09,3.04-4.26l.32-1.81h7.03l-1.09,6.07h5.12l-1.04,5.89h-4.99l-1.54,8.61c-.32,1.81.41,2.67,1.95,2.67.91,0,2.04-.18,2.95-.45l-.05,5.44c-1.5.5-3.17.77-4.85.77-5.39,0-7.98-3.4-7.21-7.93Z"/>
        <path class="cls-2" d="M27.44,34.33c0-2.4,2.13-4.49,4.53-4.49,2.27,0,3.85,1.72,3.85,3.76,0,2.4-2.13,4.49-4.58,4.49-2.18,0-3.81-1.68-3.81-3.76Z"/>
      </g>
    </g>
  </g>
</svg>